<svg width="40" height="40" viewBox="0 0 32 32" fill="none" xmlns="http://www.w3.org/2000/svg">
<path d="M28.9982 9.86937L28.9738 9.76062L28.9556 9.70353C28.9411 9.67091 28.9312 9.64191 28.9185 9.60929C28.9185 9.59026 28.904 9.57214 28.894 9.5522L28.8514 9.46792L28.8188 9.41083L28.7617 9.33471L28.7101 9.28306L28.6339 9.22597L28.5769 9.18882L28.5071 9.13716L28.4554 9.09004L28.4364 9.06739L15.1978 0.21205C14.7818 -0.0706832 14.2399 -0.0706832 13.8204 0.21205L0.477565 9.10454L0.405975 9.16616L0.358853 9.21328L0.297232 9.28306L0.254641 9.33471L0.193019 9.41083C0.170365 9.42896 0.155866 9.44346 0.155866 9.46249L0.0942443 9.5377L0.0715894 9.60929C0.0471221 9.62288 0.0471221 9.65641 0.032623 9.69357L0.0244673 9.75519C0 9.79234 0 9.82496 0 9.86393V18.9213C0 18.9784 0.00453097 19.0301 0.0144991 19.0854L0.0244673 19.1425C0.028092 19.176 0.0380602 19.214 0.0471221 19.2467L0.0661522 19.3038C0.0797451 19.3373 0.0842761 19.3699 0.0987752 19.398L0.126867 19.4551C0.126867 19.4696 0.141366 19.5067 0.160396 19.5312L0.19755 19.5783C0.216581 19.5919 0.234704 19.6255 0.254641 19.6481L0.287264 19.6998L0.334386 19.7469C0.348885 19.7614 0.348885 19.7859 0.373352 19.7859L0.443129 19.833L0.494782 19.8701L0.50475 19.8892L13.7633 28.7436C13.9617 28.8895 14.2164 28.942 14.452 28.942C14.6831 28.942 14.9196 28.8659 15.1362 28.7246L28.6213 19.7759L28.682 19.7043L28.7246 19.6472L28.7717 19.5774L28.8106 19.5158L28.8433 19.4315L28.8623 19.3699L28.8995 19.2757L28.9185 19.224L28.9556 19.1252V10.0633C28.9556 10.0062 28.9556 9.95002 28.9312 9.89293L28.9176 9.84128L28.9692 9.84581L28.9982 9.86937ZM14.5136 17.4533L10.0995 14.5073L14.5136 11.5531L18.9213 14.5036L14.5136 17.4533ZM13.2631 9.3918L7.85852 13.0021L3.49338 10.085L13.2631 3.57222V9.3918ZM5.61206 14.5046L2.49113 16.5951V12.4276L5.61206 14.5127V14.5046ZM7.85852 16.0143L13.2631 19.6291V25.4532L3.49338 18.9395L7.86396 16.0143H7.85852ZM15.7542 19.63L21.1633 16.0279L25.5284 18.9494L15.7533 25.4632L15.7542 19.63ZM23.4052 14.5172L26.5252 12.4402V16.6133L23.4052 14.5218V14.5172ZM21.1642 13.0166L15.7596 9.4063V3.56769L25.5293 10.0805L21.1642 12.9976V13.0166Z" fill="white"/>
</svg>
