<svg width="978" height="620" viewBox="0 0 978 620" fill="none" xmlns="http://www.w3.org/2000/svg" style="z-index:10;">
<g filter="url(#filter0_d_1_95)">
<path d="M15.5 379.5L129 5H205L94.5 379.5H15.5Z" fill="#E7E7E7"/>
<path d="M185 6C224.333 1.5 303 20.1 303 130.5C303 240.9 179.333 253.833 117.5 246.5C152.667 245.167 240.2 220.1 241 130.5C241.055 124.379 240.903 118.532 240.568 112.95C235.597 51.6873 194.377 49.3789 174 48L185 6Z" fill="#E7E7E7"/>
<path d="M256 379.5C257.6 269.9 161.5 242.833 118 243.5C158.4 250.3 186.5 322 172.5 388C164 455.5 145.7 581.6 244.5 584C368 587 357 432 357 447C357 462 254 516.5 256 379.5Z" fill="#E7E7E7"/>
<path d="M416.471 467.113C416.607 469.555 417.184 471.537 418.199 473.061C420.133 475.912 423.541 477.338 428.424 477.338C430.611 477.338 432.604 477.025 434.4 476.4C437.877 475.189 439.615 473.021 439.615 469.896C439.615 467.553 438.883 465.883 437.418 464.887C435.934 463.91 433.609 463.061 430.445 462.338L424.615 461.02C420.807 460.16 418.111 459.213 416.529 458.178C413.795 456.381 412.428 453.695 412.428 450.121C412.428 446.254 413.766 443.08 416.441 440.6C419.117 438.119 422.906 436.879 427.809 436.879C432.32 436.879 436.148 437.973 439.293 440.16C442.457 442.328 444.039 445.805 444.039 450.59H438.561C438.268 448.285 437.643 446.518 436.686 445.287C434.908 443.041 431.891 441.918 427.633 441.918C424.195 441.918 421.725 442.641 420.221 444.086C418.717 445.531 417.965 447.211 417.965 449.125C417.965 451.234 418.844 452.777 420.602 453.754C421.754 454.379 424.361 455.16 428.424 456.098L434.459 457.475C437.369 458.139 439.615 459.047 441.197 460.199C443.932 462.211 445.299 465.131 445.299 468.959C445.299 473.725 443.561 477.133 440.084 479.184C436.627 481.234 432.604 482.26 428.014 482.26C422.662 482.26 418.473 480.893 415.445 478.158C412.418 475.443 410.934 471.762 410.992 467.113H416.471Z" fill="#E7E7E7"/>
<path d="M514 437.963V443.09H499.498V481H493.58V443.09H479.078V437.963H514Z" fill="#E7E7E7"/>
<path d="M555.689 437.963V464.564C555.689 467.689 556.275 470.287 557.447 472.357C559.186 475.482 562.115 477.045 566.236 477.045C571.178 477.045 574.537 475.355 576.314 471.977C577.271 470.141 577.75 467.67 577.75 464.564V437.963H583.668V462.133C583.668 467.426 582.955 471.498 581.529 474.35C578.912 479.545 573.971 482.143 566.705 482.143C559.439 482.143 554.508 479.545 551.91 474.35C550.484 471.498 549.771 467.426 549.771 462.133V437.963H555.689Z" fill="#E7E7E7"/>
<path d="M639.244 476.02C641.217 476.02 642.838 475.814 644.107 475.404C646.373 474.643 648.229 473.178 649.674 471.01C650.826 469.271 651.656 467.045 652.164 464.33C652.457 462.709 652.604 461.205 652.604 459.818C652.604 454.486 651.539 450.346 649.41 447.396C647.301 444.447 643.893 442.973 639.186 442.973H628.844V476.02H639.244ZM622.984 437.963H640.416C646.334 437.963 650.924 440.062 654.186 444.262C657.096 448.051 658.551 452.904 658.551 458.822C658.551 463.393 657.691 467.523 655.973 471.215C652.945 477.738 647.74 481 640.357 481H622.984V437.963Z" fill="#E7E7E7"/>
<path d="M697.398 437.963H703.287V481H697.398V437.963Z" fill="#E7E7E7"/>
<path d="M761.354 436.791C768.951 436.791 774.576 439.232 778.229 444.115C781.08 447.924 782.506 452.797 782.506 458.734C782.506 465.16 780.875 470.502 777.613 474.76C773.785 479.76 768.326 482.26 761.236 482.26C754.615 482.26 749.41 480.072 745.621 475.697C742.242 471.479 740.553 466.146 740.553 459.701C740.553 453.881 741.998 448.9 744.889 444.76C748.6 439.447 754.088 436.791 761.354 436.791ZM761.939 477.045C767.076 477.045 770.787 475.209 773.072 471.537C775.377 467.846 776.529 463.607 776.529 458.822C776.529 453.764 775.201 449.691 772.545 446.605C769.908 443.52 766.295 441.977 761.705 441.977C757.252 441.977 753.619 443.51 750.807 446.576C747.994 449.623 746.588 454.125 746.588 460.082C746.588 464.848 747.789 468.871 750.191 472.152C752.613 475.414 756.529 477.045 761.939 477.045Z" fill="#E7E7E7"/>
<path d="M406.587 312.158L495.137 135.498H562.373L425.264 375H359.126L323.97 135.498H394.282L406.587 312.158Z" fill="#E7E7E7"/>
<path d="M614.967 197.9C613.355 205.078 615.333 210.278 620.899 213.501C626.319 216.87 646.827 222.656 682.423 230.859C706.007 236.719 722.779 245.581 732.74 257.446C742.555 269.458 745.558 284.473 741.749 302.49C736.622 326.221 723.658 345.63 702.857 360.718C682.057 375.659 653.199 383.13 616.285 383.13C578.639 383.13 552.491 375.22 537.843 359.399C523.341 343.433 518.653 323.145 523.78 298.535H587.281C586.256 309.668 587.501 317.578 591.017 322.266C596.876 330.615 610.279 334.79 631.227 334.79C643.531 334.79 653.712 332.959 661.769 329.297C669.825 325.635 674.659 320.142 676.271 312.817C677.735 305.786 675.904 300.439 670.777 296.777C665.65 293.115 645.216 286.816 609.474 277.881C583.839 271.143 566.554 262.72 557.618 252.612C548.536 242.651 546.046 228.296 550.147 209.546C554.835 187.427 567.506 168.457 588.16 152.637C608.961 136.67 635.108 128.687 666.603 128.687C696.485 128.687 719.557 134.692 735.816 146.704C752.076 158.569 758.521 179.15 755.152 208.447H692.53C693.263 200.391 692.311 194.019 689.674 189.331C684.547 180.835 673.707 176.587 657.154 176.587C643.531 176.587 633.351 178.711 626.612 182.959C620.021 187.207 616.139 192.188 614.967 197.9Z" fill="#E7E7E7"/>
<path d="M832.795 308.862C830.744 318.677 830.671 324.829 832.575 327.319C834.626 329.663 842.023 330.835 854.768 330.835C856.672 330.835 858.649 330.835 860.7 330.835C862.897 330.688 865.095 330.542 867.292 330.396L857.185 377.197L827.302 378.296C797.565 379.321 778.449 374.194 769.953 362.915C764.533 355.737 763.361 344.678 766.438 329.736L797.858 182.3H764.46L773.908 137.695H807.307L821.589 70.8984H883.552L869.27 137.695H908.161L898.713 182.3H859.821L832.795 308.862Z" fill="#E7E7E7"/>
<path d="M872.205 375L886.048 309.521H952.625L938.782 375H872.205Z" fill="#E7E7E7"/>
</g>
<defs>
<filter id="filter0_d_1_95" x="0.5" y="0" width="977.125" height="619.043" filterUnits="userSpaceOnUse" color-interpolation-filters="sRGB">
<feFlood flood-opacity="0" result="BackgroundImageFix"/>
<feColorMatrix in="SourceAlpha" type="matrix" values="0 0 0 0 0 0 0 0 0 0 0 0 0 0 0 0 0 0 127 0" result="hardAlpha"/>
<feOffset dx="5" dy="15"/>
<feGaussianBlur stdDeviation="10"/>
<feComposite in2="hardAlpha" operator="out"/>
<feColorMatrix type="matrix" values="0 0 0 0 0.758333 0 0 0 0 0.758333 0 0 0 0 0.758333 0 0 0 0.15 0"/>
<feBlend mode="normal" in2="BackgroundImageFix" result="effect1_dropShadow_1_95"/>
<feBlend mode="normal" in="SourceGraphic" in2="effect1_dropShadow_1_95" result="shape"/>
</filter>
</defs>
</svg>
