<svg width="1000" height="500" style="z-index:50;" viewBox="0 0 998 596" fill="none" xmlns="http://www.w3.org/2000/svg">
<path d="M0 376.5L113.5 0H217L105.5 376.5H0Z" fill="white"/>
<path d="M314 127.5C314 17.1 235.333 -1.5 196 3C209.333 7.16667 252.8 37.9 252 127.5C251.2 217.1 163.667 242.167 128.5 243.5C190.333 250.833 314 237.9 314 127.5Z" fill="white"/>
<path d="M267 376.5C268.6 266.9 172.5 239.833 129 240.5C169.4 247.3 197.5 319 183.5 385C175 452.5 156.7 578.6 255.5 581C379 584 368 429 368 444C368 459 265 513.5 267 376.5Z" fill="white"/>
<path d="M432.471 463.113C432.607 465.555 433.184 467.537 434.199 469.061C436.133 471.912 439.541 473.338 444.424 473.338C446.611 473.338 448.604 473.025 450.4 472.4C453.877 471.189 455.615 469.021 455.615 465.896C455.615 463.553 454.883 461.883 453.418 460.887C451.934 459.91 449.609 459.061 446.445 458.338L440.615 457.02C436.807 456.16 434.111 455.213 432.529 454.178C429.795 452.381 428.428 449.695 428.428 446.121C428.428 442.254 429.766 439.08 432.441 436.6C435.117 434.119 438.906 432.879 443.809 432.879C448.32 432.879 452.148 433.973 455.293 436.16C458.457 438.328 460.039 441.805 460.039 446.59H454.561C454.268 444.285 453.643 442.518 452.686 441.287C450.908 439.041 447.891 437.918 443.633 437.918C440.195 437.918 437.725 438.641 436.221 440.086C434.717 441.531 433.965 443.211 433.965 445.125C433.965 447.234 434.844 448.777 436.602 449.754C437.754 450.379 440.361 451.16 444.424 452.098L450.459 453.475C453.369 454.139 455.615 455.047 457.197 456.199C459.932 458.211 461.299 461.131 461.299 464.959C461.299 469.725 459.561 473.133 456.084 475.184C452.627 477.234 448.604 478.26 444.014 478.26C438.662 478.26 434.473 476.893 431.445 474.158C428.418 471.443 426.934 467.762 426.992 463.113H432.471ZM530 433.963V439.09H515.498V477H509.58V439.09H495.078V433.963H530ZM571.689 433.963V460.564C571.689 463.689 572.275 466.287 573.447 468.357C575.186 471.482 578.115 473.045 582.236 473.045C587.178 473.045 590.537 471.355 592.314 467.977C593.271 466.141 593.75 463.67 593.75 460.564V433.963H599.668V458.133C599.668 463.426 598.955 467.498 597.529 470.35C594.912 475.545 589.971 478.143 582.705 478.143C575.439 478.143 570.508 475.545 567.91 470.35C566.484 467.498 565.771 463.426 565.771 458.133V433.963H571.689ZM655.244 472.02C657.217 472.02 658.838 471.814 660.107 471.404C662.373 470.643 664.229 469.178 665.674 467.01C666.826 465.271 667.656 463.045 668.164 460.33C668.457 458.709 668.604 457.205 668.604 455.818C668.604 450.486 667.539 446.346 665.41 443.396C663.301 440.447 659.893 438.973 655.186 438.973H644.844V472.02H655.244ZM638.984 433.963H656.416C662.334 433.963 666.924 436.062 670.186 440.262C673.096 444.051 674.551 448.904 674.551 454.822C674.551 459.393 673.691 463.523 671.973 467.215C668.945 473.738 663.74 477 656.357 477H638.984V433.963ZM713.398 433.963H719.287V477H713.398V433.963ZM777.354 432.791C784.951 432.791 790.576 435.232 794.229 440.115C797.08 443.924 798.506 448.797 798.506 454.734C798.506 461.16 796.875 466.502 793.613 470.76C789.785 475.76 784.326 478.26 777.236 478.26C770.615 478.26 765.41 476.072 761.621 471.697C758.242 467.479 756.553 462.146 756.553 455.701C756.553 449.881 757.998 444.9 760.889 440.76C764.6 435.447 770.088 432.791 777.354 432.791ZM777.939 473.045C783.076 473.045 786.787 471.209 789.072 467.537C791.377 463.846 792.529 459.607 792.529 454.822C792.529 449.764 791.201 445.691 788.545 442.605C785.908 439.52 782.295 437.977 777.705 437.977C773.252 437.977 769.619 439.51 766.807 442.576C763.994 445.623 762.588 450.125 762.588 456.082C762.588 460.848 763.789 464.871 766.191 468.152C768.613 471.414 772.529 473.045 777.939 473.045Z" fill="white"/>
<path d="M410.405 315.951L495.02 147.143H559.268L428.252 376H365.054L331.46 147.143H398.647L410.405 315.951ZM609.524 206.771C607.984 213.63 609.874 218.599 615.193 221.679C620.372 224.898 639.968 230.427 673.982 238.266C696.518 243.865 712.545 252.333 722.063 263.671C731.441 275.149 734.311 289.496 730.671 306.713C725.772 329.389 713.385 347.935 693.508 362.353C673.632 376.63 646.057 383.769 610.784 383.769C574.81 383.769 549.825 376.21 535.828 361.093C521.97 345.836 517.491 326.449 522.39 302.934H583.069C582.089 313.572 583.279 321.13 586.638 325.609C592.237 333.588 605.045 337.577 625.061 337.577C636.819 337.577 646.547 335.827 654.246 332.328C661.944 328.829 666.563 323.58 668.103 316.581C669.503 309.862 667.753 304.753 662.854 301.254C657.955 297.755 638.428 291.736 604.275 283.197C579.779 276.758 563.262 268.71 554.724 259.052C546.046 249.534 543.666 235.816 547.585 217.899C552.065 196.763 564.172 178.637 583.909 163.52C603.785 148.262 628.77 140.634 658.865 140.634C687.419 140.634 709.465 146.373 725.002 157.851C740.539 169.188 746.698 188.855 743.479 216.85H683.64C684.34 209.151 683.43 203.062 680.911 198.583C676.011 190.465 665.653 186.405 649.836 186.405C636.819 186.405 627.091 188.435 620.652 192.494C614.353 196.553 610.644 201.312 609.524 206.771ZM817.671 312.802C815.711 322.18 815.641 328.059 817.461 330.438C819.42 332.678 826.489 333.798 838.667 333.798C840.486 333.798 842.376 333.798 844.336 333.798C846.435 333.658 848.535 333.518 850.635 333.378L840.976 378.1L812.422 379.149C784.007 380.129 765.74 375.23 757.622 364.452C752.443 357.593 751.323 347.025 754.263 332.748L784.287 191.864H752.373L761.401 149.242H793.315L806.963 85.4141H866.172L852.524 149.242H889.687L880.659 191.864H843.496L817.671 312.802ZM855.329 376L868.557 313.432H932.175L918.947 376H855.329Z" fill="white"/>
</svg>
