<svg width="30" height="30" viewBox="0 0 30 30" fill="none" xmlns="http://www.w3.org/2000/svg">
<path d="M25.5563 25.5666H21.1191V18.6037C21.1191 16.9434 21.0844 14.8097 18.7988 14.8097C16.485 14.8097 16.1325 16.6106 16.1325 18.4809V25.5656H11.6897V11.2491H15.9572V13.2019H16.0144C16.6106 12.0741 18.0609 10.8881 20.2247 10.8881C24.7256 10.8881 25.5609 13.8516 25.5609 17.7047V25.5656L25.5563 25.5666ZM6.67031 9.2925C5.23875 9.2925 4.09125 8.13469 4.09125 6.70875C4.09125 5.2875 5.24344 4.13156 6.67031 4.13156C8.09719 4.13156 9.25312 5.2875 9.25312 6.70875C9.25312 8.13469 8.09719 9.2925 6.67031 9.2925ZM8.89594 25.5666H4.44375V11.25H8.89594V25.5666ZM27.7837 0H2.2125C0.990937 0 0 0.966562 0 2.16281V27.8381C0 29.0344 0.990937 30.0009 2.2125 30.0009H27.7791C28.9988 30.0009 30 29.0344 30 27.8381V2.16281C30 0.966562 28.9988 0 27.7791 0L27.7837 0Z" fill="white"/>
</svg>
