<svg width="30" height="30" viewBox="0 0 30 30" fill="none" xmlns="http://www.w3.org/2000/svg">
<path d="M15.0009 0.000937546C6.71386 0.000937546 0 6.72042 0 15.0019C0 21.6332 4.29777 27.2539 10.2541 29.2368C11.0069 29.3784 11.2788 28.9143 11.2788 28.513C11.2788 28.1568 11.2704 27.2145 11.2648 25.9638C7.08982 26.8676 6.21039 23.9471 6.21039 23.9471C5.52691 22.2183 4.5406 21.7542 4.5406 21.7542C3.18301 20.8269 4.64842 20.8466 4.64842 20.8466C6.15226 20.9488 6.94356 22.3889 6.94356 22.3889C8.28146 24.684 10.4538 24.0202 11.3135 23.634C11.4448 22.6674 11.8357 22.0026 12.2614 21.6323C8.93118 21.2563 5.4294 19.9672 5.4294 14.219C5.4294 12.5773 6.01069 11.2404 6.97169 10.1903C6.80574 9.81436 6.29758 8.28614 7.10388 6.21976C7.10388 6.21976 8.35927 5.81943 11.2291 7.7583C12.4302 7.42546 13.7052 7.25952 14.9794 7.25108C16.2545 7.25952 17.5286 7.4264 18.7296 7.7583C21.5826 5.81943 22.8371 6.21976 22.8371 6.21976C23.6424 8.28614 23.1343 9.81342 22.988 10.1903C23.9396 11.2404 24.5209 12.5783 24.5209 14.219C24.5209 19.9803 21.0144 21.2507 17.6805 21.6173C18.2018 22.0664 18.6902 22.9899 18.6902 24.3915C18.6902 26.3979 18.6715 28.0142 18.6715 28.5027C18.6715 28.8927 18.934 29.3615 19.7065 29.2106C25.7069 27.2483 30 21.6229 30 15.0009C30 6.71948 23.2861 0 14.9991 0L15.0009 0.000937546Z" fill="white"/>
</svg>
